<svg width="64" height="74" fill="none" xmlns="http://www.w3.org/2000/svg"><path d="M60 39.5V25C60 11.745 49.255 1 36 1h-8C14.745 1 4 11.745 4 25v14.5" stroke="#2E3A59" stroke-width="2"/><path d="M55 31v8c0 12.703-10.297 23-23 23S9 51.703 9 39v-8C9 18.297 19.297 8 32 8s23 10.297 23 23z" stroke="#2E3A59" stroke-width="2"/><path d="M29.5 70.5H36c13.255 0 24-10.745 24-24V36" stroke="#2E3A59" stroke-width="2"/><rect x="1" y="32" width="6" height="14" rx="3" stroke="#2E3A59" stroke-width="2"/><rect x="57" y="32" width="6" height="14" rx="3" stroke="#2E3A59" stroke-width="2"/></svg>