<svg width="97" height="87" fill="none" xmlns="http://www.w3.org/2000/svg"><path d="M15.16 61.542c-5.857-5.858-5.857-15.355 0-21.213l25.554-25.553c5.858-5.858 15.355-5.858 21.213 0l4.448 4.448c6.364 6.364 5.74 16.899-1.145 22.78-3.85 3.29-7.849 6.845-11.044 10.005-3.74 3.7-7.974 8.436-11.789 12.888-5.884 6.866-16.406 7.475-22.762 1.119l-4.474-4.474z" stroke="#2E3A59" stroke-width="2"/><path d="M13.136 59.287c-5.37-5.37-5.872-13.882-1.01-19.666 4.383-5.212 9.662-11.246 14.176-15.71 3.978-3.935 9.252-8.521 13.933-12.44 5.785-4.843 14.285-4.332 19.647 1.03l.4.4c6.365 6.364 5.74 16.899-1.145 22.78-3.85 3.29-7.848 6.845-11.043 10.005-3.74 3.7-7.975 8.436-11.79 12.888-5.883 6.866-16.406 7.475-22.762 1.12l-.406-.407z" stroke="#2E3A59" stroke-width="2"/><rect x="34.152" y="26.767" width="15.665" height="15.665" rx="7.833" transform="rotate(-45 34.152 26.767)" stroke="#2E3A59" stroke-width="2"/><rect x="69.5" y="64" width="26" height="22" rx="1" stroke="#2E3A59" stroke-width="2"/><path d="M71.5 41c7 2 11 5 11 15.999" stroke="#2E3A59" stroke-width="2"/></svg>