<svg width="0" height="0" class="hidden">
  <symbol fill="none"
    xmlns="http://www.w3.org/2000/svg" viewBox="0 0 64 74" id="icon-1">
    <path d="M60 39.5V25C60 11.745 49.255 1 36 1h-8C14.745 1 4 11.745 4 25v14.5" stroke-width="2"></path>
    <path d="M55 31v8c0 12.703-10.297 23-23 23S9 51.703 9 39v-8C9 18.297 19.297 8 32 8s23 10.297 23 23z" stroke-width="2"></path>
    <path d="M29.5 70.5H36c13.255 0 24-10.745 24-24V36" stroke-width="2"></path>
    <rect x="1" y="32" width="6" height="14" rx="3" stroke-width="2"></rect>
    <rect x="57" y="32" width="6" height="14" rx="3" stroke-width="2"></rect>
  </symbol>
  <symbol fill="none"
    xmlns="http://www.w3.org/2000/svg" viewBox="0 0 74 86" id="icon-2">
    <circle cx="31.69" cy="73.411" r="7" transform="rotate(-15 31.69 73.41)" stroke-width="2"></circle>
    <path stroke-width="2" d="M30.997 32.185l28.978-7.765 7.764 28.978-28.978 7.765z"></path>
    <path stroke="#00C368" stroke-width="2" d="M43.105 31.011l5.795-1.553 2.071 7.728-5.796 1.552z"></path>
  </symbol>
  <symbol fill="none"
    xmlns="http://www.w3.org/2000/svg" viewBox="0 0 97 87" id="icon-3">
    <path d="M15.16 61.542c-5.857-5.858-5.857-15.355 0-21.213l25.554-25.553c5.858-5.858 15.355-5.858 21.213 0l4.448 4.448c6.364 6.364 5.74 16.899-1.145 22.78-3.85 3.29-7.849 6.845-11.044 10.005-3.74 3.7-7.974 8.436-11.789 12.888-5.884 6.866-16.406 7.475-22.762 1.119l-4.474-4.474z" stroke-width="2"></path>
    <path d="M13.136 59.287c-5.37-5.37-5.872-13.882-1.01-19.666 4.383-5.212 9.662-11.246 14.176-15.71 3.978-3.935 9.252-8.521 13.933-12.44 5.785-4.843 14.285-4.332 19.647 1.03l.4.4c6.365 6.364 5.74 16.899-1.145 22.78-3.85 3.29-7.848 6.845-11.043 10.005-3.74 3.7-7.975 8.436-11.79 12.888-5.883 6.866-16.406 7.475-22.762 1.12l-.406-.407z" stroke-width="2"></path>
    <rect x="34.152" y="26.767" width="15.665" height="15.665" rx="7.833" transform="rotate(-45 34.152 26.767)" stroke-width="2"></rect>
    <rect x="69.5" y="64" width="26" height="22" rx="1" stroke-width="2"></rect>
    <path d="M71.5 41c7 2 11 5 11 15.999" stroke-width="2"></path>
  </symbol>
  <symbol fill="none"
    xmlns="http://www.w3.org/2000/svg" viewBox="0 0 57 72" id="icon-4">
    <rect x="1.5" y="1" width="54" height="70" rx="3" stroke-width="2"></rect>
    <path d="M9.5 1h38v5a3 3 0 01-3 3h-32a3 3 0 01-3-3V1z" stroke-width="2"></path>
    <path d="M9.5 57a3 3 0 013-3h32a3 3 0 013 3v2a3 3 0 01-3 3h-32a3 3 0 01-3-3v-2z" stroke="#00C368" stroke-width="2"></path>
  </symbol>

</svg>